<svg xmlns="http://www.w3.org/2000/svg" width="200.55" height="40.635" viewBox="0 0 200.55 40.635">
  <g id="Group_13" data-name="Group 13" transform="translate(-261 -66.365)">
    <g id="Union_13" data-name="Union 13" transform="translate(1502.166 1448.139)" fill="#fdf8e2">
      <path d="M -1049.63037109375 -1342.138671875 L -1076.083251953125 -1342.138671875 L -1205.698486328125 -1342.138671875 L -1232.152221679688 -1342.138671875 C -1235.0869140625 -1342.138671875 -1237.69580078125 -1343.667114257813 -1239.130737304688 -1346.227172851563 C -1240.565673828125 -1348.787231445313 -1240.5078125 -1351.810302734375 -1238.976196289063 -1354.313842773438 L -1225.886352539063 -1375.706420898438 L -1225.845947265625 -1375.7724609375 L -1225.816040039063 -1375.844116210938 C -1224.570190429688 -1378.838745117188 -1221.669555664063 -1380.773681640625 -1218.42626953125 -1380.773681640625 L -1064.064575195313 -1380.773681640625 C -1061.9423828125 -1380.773681640625 -1059.943115234375 -1379.951171875 -1058.43505859375 -1378.457763671875 L -1058.372802734375 -1378.396118164063 L -1058.30078125 -1378.346313476563 C -1057.390625 -1377.715942382813 -1056.627563476563 -1376.9033203125 -1056.032836914063 -1375.931030273438 L -1042.806396484375 -1354.313842773438 C -1041.274658203125 -1351.81005859375 -1041.216796875 -1348.786865234375 -1042.65185546875 -1346.226806640625 C -1044.086669921875 -1343.6669921875 -1046.695434570313 -1342.138671875 -1049.63037109375 -1342.138671875 Z" stroke="none"/>
      <path d="M -1049.63037109375 -1343.138671875 C -1047.062255859375 -1343.138671875 -1044.779663085938 -1344.475952148438 -1043.524047851563 -1346.7158203125 C -1042.2685546875 -1348.955810546875 -1042.319091796875 -1351.601196289063 -1043.659301757813 -1353.791870117188 L -1056.885864257813 -1375.4091796875 C -1057.407592773438 -1376.261962890625 -1058.0751953125 -1376.973510742188 -1058.870239257813 -1377.524169921875 L -1059.014282226563 -1377.6240234375 L -1059.138793945313 -1377.747314453125 C -1060.458251953125 -1379.053955078125 -1062.207641601563 -1379.773681640625 -1064.064575195313 -1379.773681640625 L -1218.42626953125 -1379.773681640625 C -1221.264282226563 -1379.773681640625 -1223.802612304688 -1378.080444335938 -1224.892822265625 -1375.4599609375 L -1224.952392578125 -1375.316772460938 L -1225.033447265625 -1375.184448242188 L -1238.123168945313 -1353.7919921875 C -1239.46337890625 -1351.601318359375 -1239.513916015625 -1348.956176757813 -1238.258422851563 -1346.716064453125 C -1237.002807617188 -1344.47607421875 -1234.720092773438 -1343.138671875 -1232.152221679688 -1343.138671875 L -1205.698486328125 -1343.138671875 L -1076.083251953125 -1343.138671875 L -1049.63037109375 -1343.138671875 M -1049.63037109375 -1341.138671875 L -1076.083251953125 -1341.138671875 L -1205.698486328125 -1341.138671875 L -1232.152221679688 -1341.138671875 C -1239.18212890625 -1341.138671875 -1243.49853515625 -1348.838134765625 -1239.829223632813 -1354.835693359375 L -1226.739379882813 -1376.228271484375 C -1225.384643554688 -1379.484497070313 -1222.172485351563 -1381.773681640625 -1218.42626953125 -1381.773681640625 L -1064.064575195313 -1381.773681640625 C -1061.595092773438 -1381.773681640625 -1059.357666015625 -1380.77880859375 -1057.7314453125 -1379.168334960938 C -1056.743774414063 -1378.484252929688 -1055.868774414063 -1377.5791015625 -1055.179809570313 -1376.452880859375 L -1041.953369140625 -1354.835693359375 C -1038.2841796875 -1348.838134765625 -1042.599609375 -1341.138671875 -1049.63037109375 -1341.138671875 Z" stroke="none" fill="#707070"/>
    </g>
    <path id="Path_3" data-name="Path 3" d="M13.536-13.5h-9v-9H.036V0h4.5V-9h9V0h4.5V-22.5h-4.5Zm22.572,9V-18h-9V-4.5Zm-9,0h-4.5V-18h4.5v-4.5h9V-18h4.5V-4.5h-4.5V0h-9ZM49.68-18v-4.5h-4.5V0h4.5V-13.5h4.5V-18Zm4.5,9h4.5v-4.5h-4.5Zm9-9h-4.5v4.5h4.5V0h4.5V-22.5h-4.5ZM85.752,0V-4.5h-9V-9h9v-4.5h-9V-18h9v-4.5h-13.5V0Z" transform="translate(313.448 92)"/>
  </g>
</svg>
