<svg xmlns="http://www.w3.org/2000/svg" width="200.55" height="40.635" viewBox="0 0 200.55 40.635">
  <g id="Group_15" data-name="Group 15" transform="translate(-621.443 -66)">
    <g id="Group_3" data-name="Group 3" transform="translate(622.059 66.883)">
      <g id="Union_6" data-name="Union 6" transform="translate(0 0)" fill="#fdf8e2">
        <path d="M 189.4076995849609 38.36779403686523 L 168.0282135009766 38.36779403686523 L 30.03299713134766 38.36779403686523 L 8.653495788574219 38.36779403686523 C 5.734549045562744 38.36779403686523 3.132627725601196 36.85169219970703 1.693338394165039 34.3122444152832 C 0.2541541457176208 31.77300643920898 0.2901014983654022 28.76216316223145 1.789443612098694 26.25824356079102 L 12.4788122177124 8.402137756347656 C 13.21247005462646 7.17687463760376 14.19849586486816 6.210900783538818 15.40952301025391 5.531164169311523 L 15.88144397735596 5.266269207000732 L 15.91778564453125 4.726295471191406 C 16.05846977233887 2.636795520782471 17.81118011474609 1.000006079673767 19.90799713134766 1.000006079673767 L 177.1209106445313 1.000006079673767 C 179.0714416503906 1.000006079673767 180.7286071777344 2.392216682434082 181.0612335205078 4.310374736785889 L 181.1572570800781 4.864190101623535 L 181.6802825927734 5.070032596588135 C 183.3127899169922 5.712532520294189 184.6620941162109 6.864769458770752 185.5823669433594 8.402111053466797 L 196.2717132568359 26.25813674926758 C 197.7711029052734 28.76216316223145 197.8070526123047 31.77300643920898 196.3678588867188 34.3122444152832 C 194.9285736083984 36.85169219970703 192.32666015625 38.36779403686523 189.4076995849609 38.36779403686523 Z" stroke="none"/>
        <path d="M 189.40771484375 37.36779022216797 C 191.9617919921875 37.36779022216797 194.2384948730469 36.04120635986328 195.4979095458984 33.81914901733398 C 196.7571563720703 31.59734535217285 196.7257385253906 28.96290016174316 195.4136810302734 26.77178955078125 L 184.7243499755859 8.91573429107666 C 183.9185485839844 7.569539546966553 182.7392730712891 6.561484336853027 181.3140411376953 6.00051212310791 L 180.2680206298828 5.588817596435547 L 180.075927734375 4.48120641708374 C 179.8265991210938 3.043511867523193 178.5838470458984 2.000011920928955 177.1209106445313 2.000011920928955 L 19.90798950195313 2.000011920928955 C 18.33543395996094 2.000011920928955 17.0209903717041 3.227067470550537 16.91551780700684 4.793511867523193 L 16.84282302856445 5.873400688171387 L 15.89899063110352 6.403178691864014 C 14.84182357788086 6.996567726135254 13.97976779937744 7.841984272003174 13.33682346343994 8.915789604187012 L 2.647407054901123 26.7719841003418 C 1.335490345954895 28.96290016174316 1.304045915603638 31.59734535217285 2.563323736190796 33.81914901733398 C 3.822712659835815 36.04117965698242 6.099434852600098 37.36779022216797 8.653517723083496 37.36779022216797 L 30.03298950195313 37.36779022216797 L 168.0282135009766 37.36779022216797 L 189.40771484375 37.36779022216797 M 189.40771484375 39.36779022216797 L 168.0282135009766 39.36779022216797 L 30.03298950195313 39.36779022216797 L 8.653517723083496 39.36779022216797 C 1.661407113075256 39.36779022216797 -2.660398483276367 31.74301147460938 0.9315181970596313 25.7445125579834 L 11.62079620361328 7.888512134552002 C 12.47335147857666 6.464650630950928 13.62104606628418 5.388289928436279 14.92004585266113 4.65915060043335 C 15.09529590606689 2.056178569793701 17.26140785217285 1.194424112327397e-05 19.90798950195313 1.194424112327397e-05 L 177.1209106445313 1.194424112327397e-05 C 179.5887145996094 1.194424112327397e-05 181.6386871337891 1.78770637512207 182.0465240478516 4.13948392868042 C 183.7914276123047 4.8262619972229 185.3554382324219 6.075984001159668 186.4404144287109 7.888512134552002 L 197.1297149658203 25.7445125579834 C 200.7216033935547 31.74301147460938 196.3998260498047 39.36779022216797 189.40771484375 39.36779022216797 Z" stroke="none" fill="#707070"/>
      </g>
    </g>
    <g id="Union_15" data-name="Union 15" transform="translate(1862.609 1447.774)" fill="#fdf8e2">
      <path d="M -1049.63037109375 -1342.138671875 L -1076.083251953125 -1342.138671875 L -1205.698486328125 -1342.138671875 L -1232.152221679688 -1342.138671875 C -1235.0869140625 -1342.138671875 -1237.69580078125 -1343.667114257813 -1239.130737304688 -1346.227172851563 C -1240.565673828125 -1348.787231445313 -1240.5078125 -1351.810302734375 -1238.976196289063 -1354.313842773438 L -1225.886352539063 -1375.706420898438 L -1225.845947265625 -1375.7724609375 L -1225.816040039063 -1375.844116210938 C -1224.570190429688 -1378.838745117188 -1221.669555664063 -1380.773681640625 -1218.42626953125 -1380.773681640625 L -1064.064575195313 -1380.773681640625 C -1061.9423828125 -1380.773681640625 -1059.943115234375 -1379.951171875 -1058.43505859375 -1378.457763671875 L -1058.372802734375 -1378.396118164063 L -1058.30078125 -1378.346313476563 C -1057.390625 -1377.715942382813 -1056.627563476563 -1376.9033203125 -1056.032836914063 -1375.931030273438 L -1042.806396484375 -1354.313842773438 C -1041.274658203125 -1351.81005859375 -1041.216796875 -1348.786865234375 -1042.65185546875 -1346.226806640625 C -1044.086669921875 -1343.6669921875 -1046.695434570313 -1342.138671875 -1049.63037109375 -1342.138671875 Z" stroke="none"/>
      <path d="M -1049.63037109375 -1343.138671875 C -1047.062255859375 -1343.138671875 -1044.779663085938 -1344.475952148438 -1043.524047851563 -1346.7158203125 C -1042.2685546875 -1348.955810546875 -1042.319091796875 -1351.601196289063 -1043.659301757813 -1353.791870117188 L -1056.885864257813 -1375.4091796875 C -1057.407592773438 -1376.261962890625 -1058.0751953125 -1376.973510742188 -1058.870239257813 -1377.524169921875 L -1059.014282226563 -1377.6240234375 L -1059.138793945313 -1377.747314453125 C -1060.458251953125 -1379.053955078125 -1062.207641601563 -1379.773681640625 -1064.064575195313 -1379.773681640625 L -1218.42626953125 -1379.773681640625 C -1221.264282226563 -1379.773681640625 -1223.802612304688 -1378.080444335938 -1224.892822265625 -1375.4599609375 L -1224.952392578125 -1375.316772460938 L -1225.033447265625 -1375.184448242188 L -1238.123168945313 -1353.7919921875 C -1239.46337890625 -1351.601318359375 -1239.513916015625 -1348.956176757813 -1238.258422851563 -1346.716064453125 C -1237.002807617188 -1344.47607421875 -1234.720092773438 -1343.138671875 -1232.152221679688 -1343.138671875 L -1205.698486328125 -1343.138671875 L -1076.083251953125 -1343.138671875 L -1049.63037109375 -1343.138671875 M -1049.63037109375 -1341.138671875 L -1076.083251953125 -1341.138671875 L -1205.698486328125 -1341.138671875 L -1232.152221679688 -1341.138671875 C -1239.18212890625 -1341.138671875 -1243.49853515625 -1348.838134765625 -1239.829223632813 -1354.835693359375 L -1226.739379882813 -1376.228271484375 C -1225.384643554688 -1379.484497070313 -1222.172485351563 -1381.773681640625 -1218.42626953125 -1381.773681640625 L -1064.064575195313 -1381.773681640625 C -1061.595092773438 -1381.773681640625 -1059.357666015625 -1380.77880859375 -1057.7314453125 -1379.168334960938 C -1056.743774414063 -1378.484252929688 -1055.868774414063 -1377.5791015625 -1055.179809570313 -1376.452880859375 L -1041.953369140625 -1354.835693359375 C -1038.2841796875 -1348.838134765625 -1042.599609375 -1341.138671875 -1049.63037109375 -1341.138671875 Z" stroke="none" fill="#707070"/>
    </g>
    <path id="Path_5" data-name="Path 5" d="M13.536-18v-4.5h-9V-18Zm-9,0H.036V-4.5h4.5Zm9,18V-4.5h-9V0ZM31.608-4.5V-18h-9V-4.5Zm-9,0h-4.5V-18h4.5v-4.5h9V-18h4.5V-4.5h-4.5V0h-9ZM54.18-9V0h4.5V-22.5h-4.5v9h-4.5V-9Zm-9-4.5h4.5V-18h-4.5v-4.5h-4.5V0h4.5ZM67.752,0h4.5V-18h4.5v-4.5h-13.5V-18h4.5ZM85.824-18v-4.5h9V-18h4.5V0h-4.5V-4.5h-9V0h-4.5V-18Zm9,9v-9h-9v9ZM117.4-18v-4.5h-9V-18Zm-9,0h-4.5V-4.5h4.5Zm9,18V-4.5h-9V0Zm9.072,0h4.5V-18h4.5v-4.5h-13.5V-18h4.5Z" transform="translate(651.948 92)"/>
  </g>
</svg>
