<?xml version="1.0" encoding="utf-8"?>
<!-- Generator: Adobe Illustrator 24.0.0, SVG Export Plug-In . SVG Version: 6.00 Build 0)  -->
<svg version="1.1" id="Layer_1" xmlns="http://www.w3.org/2000/svg" xmlns:xlink="http://www.w3.org/1999/xlink" x="0px" y="0px"
	 viewBox="0 0 1642 744" style="enable-background:new 0 0 1642 744;" xml:space="preserve">
<style type="text/css">
	.st0{fill:#FDF7E3;}
	.st1{fill:none;stroke:#717171;}
	.st2{fill:#FFFFFF;}
</style>
<g id="Group_17" transform="translate(-278 -156)">
	<g id="Component_6_2" transform="translate(278 156)">
		<g id="Rectangle_1">
			<path class="st0" d="M44.5,0.5h1552c24.9,0,45,20.1,45,45v699l0,0H-0.5l0,0v-699C-0.5,20.6,19.6,0.5,44.5,0.5z"/>
			<path class="st1" d="M44.5,1h1552c24.6,0,44.5,19.9,44.5,44.5v698c0,0.3-0.2,0.5-0.5,0.5H0.5c-0.3,0-0.5-0.2-0.5-0.5v-698
				C0,20.9,19.9,1,44.5,1z"/>
		</g>
	</g>
	<g id="Component_7_2" transform="translate(314 191)">
		<rect id="Rectangle_15" x="-0.5" y="0.5" class="st2" width="1570" height="703"/>
	</g>
</g>
</svg>
