<svg xmlns="http://www.w3.org/2000/svg" width="1185.634" height="112.597" viewBox="0 0 1185.634 112.597">
  <g id="Union_17" data-name="Union 17" transform="translate(1178.633 2160.847)" fill="#fdf8e2">
    <path d="M -870.6402587890625 -2048.749755859375 L -1164.609985351563 -2048.749755859375 C -1167.859619140625 -2048.749755859375 -1170.821899414063 -2049.774658203125 -1173.176879882813 -2051.71337890625 C -1175.31884765625 -2053.477294921875 -1176.908081054688 -2055.98095703125 -1177.651733398438 -2058.763916015625 C -1178.395629882813 -2061.546875 -1178.267333984375 -2064.510009765625 -1177.29052734375 -2067.107421875 C -1176.216674804688 -2069.963134765625 -1174.160400390625 -2072.329345703125 -1171.343627929688 -2073.95068359375 L -1024.359130859375 -2158.547119140625 C -1022.76025390625 -2159.46728515625 -1021.021606445313 -2160.0419921875 -1019.191162109375 -2160.255615234375 L -1018.749145507813 -2160.30712890625 L -1018.749145507813 -2160.329833984375 L -1018.312255859375 -2160.329833984375 L -1018.299926757813 -2160.329833984375 L -1018.287780761719 -2160.330322265625 C -1018.068115234375 -2160.341064453125 -1017.845153808594 -2160.3466796875 -1017.625 -2160.3466796875 C -1017.405029296875 -2160.3466796875 -1017.182067871094 -2160.341064453125 -1016.96240234375 -2160.330322265625 L -1016.950256347656 -2160.329833984375 L -1016.937927246094 -2160.329833984375 L 6.501137256622314 -2160.329833984375 L 6.501137256622314 -2048.829833984375 L -869.0514526367188 -2048.829833984375 L -869.0770263671875 -2048.829833984375 L -869.1022338867188 -2048.8271484375 C -869.6048583984375 -2048.77587890625 -870.1222534179688 -2048.749755859375 -870.6402587890625 -2048.749755859375 Z" stroke="none"/>
    <path d="M -870.6402587890625 -2049.249755859375 C -870.13916015625 -2049.249755859375 -869.6388549804688 -2049.275146484375 -869.1531982421875 -2049.324462890625 L -869.1024169921875 -2049.329833984375 L -869.0514526367188 -2049.329833984375 L 6.001137256622314 -2049.329833984375 L 6.001137256622314 -2159.829833984375 L -1016.937927246094 -2159.829833984375 L -1016.96240234375 -2159.829833984375 L -1016.986999511719 -2159.8310546875 C -1017.197326660156 -2159.84130859375 -1017.412109375 -2159.8466796875 -1017.625 -2159.8466796875 C -1017.838073730469 -2159.8466796875 -1018.052856445313 -2159.84130859375 -1018.26318359375 -2159.8310546875 L -1018.287780761719 -2159.829833984375 L -1018.312255859375 -2159.829833984375 L -1018.527160644531 -2159.829833984375 L -1019.133178710938 -2159.759033203125 C -1020.895812988281 -2159.55322265625 -1022.570068359375 -2158.999755859375 -1024.109741210938 -2158.113525390625 L -1171.094116210938 -2073.517578125 C -1173.809204101563 -2071.95458984375 -1175.7900390625 -2069.67724609375 -1176.822509765625 -2066.931640625 C -1177.762817382813 -2064.430908203125 -1177.8857421875 -2061.576171875 -1177.168701171875 -2058.892822265625 C -1176.451782226563 -2056.210205078125 -1174.921142578125 -2053.797607421875 -1172.859008789063 -2052.099365234375 C -1170.5947265625 -2050.235107421875 -1167.7421875 -2049.249755859375 -1164.609985351563 -2049.249755859375 L -870.6402587890625 -2049.249755859375 M -870.6402587890625 -2048.249755859375 L -1164.609985351563 -2048.249755859375 C -1178.943359375 -2048.249755859375 -1184.015747070313 -2067.2333984375 -1171.593017578125 -2074.384033203125 L -1024.608520507813 -2158.98046875 C -1022.933166503906 -2159.944580078125 -1021.107788085938 -2160.535400390625 -1019.249145507813 -2160.752197265625 L -1019.249145507813 -2160.829833984375 L -1018.312255859375 -2160.829833984375 C -1018.08349609375 -2160.841064453125 -1017.854309082031 -2160.8466796875 -1017.625122070313 -2160.8466796875 C -1017.395874023438 -2160.8466796875 -1017.166687011719 -2160.841064453125 -1016.937927246094 -2160.829833984375 L 7.001137256622314 -2160.829833984375 L 7.001137256622314 -2048.329833984375 L -869.0514526367188 -2048.329833984375 C -869.5678100585938 -2048.277099609375 -870.0968627929688 -2048.249755859375 -870.6402587890625 -2048.249755859375 Z" stroke="none" fill="#707070"/>
  </g>
</svg>
