<svg id="Layer_1" data-name="Layer 1" xmlns="http://www.w3.org/2000/svg" xmlns:xlink="http://www.w3.org/1999/xlink" viewBox="0 0 904 663"><defs><style>.cls-1{fill:#424141;}.cls-2{fill:none;}.cls-2,.cls-4,.cls-5{stroke:#000;stroke-miterlimit:10;stroke-width:4px;}.cls-3,.cls-4{fill:#7a7a7a;}.cls-5{fill:#fff;}</style></defs><image width="217" height="217" transform="translate(448 237)" xlink:href="profileCirc1.png"/><path class="cls-1" d="M401.63,453.27c-.45-.86.39-1.11-.09-1.95.24-.35-.68-.7-.71-1.24-.13-2.74.8-5.55.69-8.29a4.94,4.94,0,0,0,.13-3.58c-.11-.34-.22-.68-.32-1q-.27-7-.37-14c.67-2.68-.13-5.07.51-8.85.07-.4-.32-.75-.5-1.12,0-.69,0-1.38,0-2.07.81-.67-.21-2.29-1-3.41-5.9-8.6-12.66-15-17.55-24.11a2,2,0,0,0-1.37-1.7,2.42,2.42,0,0,0-2,0c-3.45.63-6,2.87-9.33,4s-7,3-10.57,4.11a10,10,0,0,0-1.95.51,2.7,2.7,0,0,0-.54.26c-.7.1-1.41.18-2.13.23-3.24.22-3.27,5,0,4.79l.39,0a2.47,2.47,0,0,0,.59,1.29,69.08,69.08,0,0,1,7,9.75,2.27,2.27,0,0,0,1.65,1.11c.08.18.15.36.23.52a45.09,45.09,0,0,0,3,5.19,50.57,50.57,0,0,0,7.52,8.58,2.26,2.26,0,0,0,.31.23c6.62,11.91,16.85,23.4,23.15,35.51C399.88,460.83,403.07,456,401.63,453.27Z"/><line class="cls-2" x1="381.34" y1="380.14" x2="401.37" y2="408.64"/><path class="cls-3" d="M370.89,379.84l-.63.1h0L370,380c-.65.1-1.28.23-1.91.39-6.72,1.23-12.9.78-19.82.22a2,2,0,0,0-2.1,1.21l-.28.08c-5.8,1.63-11.55,3.46-17.32,5.18a2.41,2.41,0,0,0,.64,4.71c3.07.19,6.34-1.13,9.48-1.32a66.51,66.51,0,0,1,11.11.44c6.31.66,12.2-3.91,18.33-5.68,1.11-.18,2.22-.4,3.36-.66C374.09,384,373.61,379.51,370.89,379.84Z"/><path class="cls-1" d="M380.89,477.48c-3.52-5-6.66-10.21-11.42-14.25l-.27-.19c-.39-.76-.78-1.51-1.19-2.27a105.5,105.5,0,0,0-5.88-9.26,2.5,2.5,0,0,0-.61-.64c-.16-1.16-.33-2.32-.52-3.45a2.07,2.07,0,0,0-2.79-1.63c-.13-.19-.26-.39-.41-.58l-.12-.17h0c-.07-.08-.12-.17-.19-.25a.8.8,0,0,0-.17-.15q0-.57,0-1.14c-.08-1.54-2.58-1.55-2.5,0,.3,5.8-.57,11.59.21,17.37a.53.53,0,0,1,0,.13h0l0,.32a.19.19,0,0,1,0,.07,62.48,62.48,0,0,0-.2,12.08c.41,4.59,1,9.08-.24,13.6-.75,2.79,2.95,3.94,4.58,1.85,1-1.26,4.55-2,6-2.6,2.19-.87,4.4-1.7,6.64-2.44,1.82-.61,3.8-1,5.57-1.7a4.75,4.75,0,0,0,1.47-.7c1-1,.61-.25-.8-.48C380,481.32,382.22,479.37,380.89,477.48Z"/><path class="cls-3" d="M477.36,459.75a16.9,16.9,0,0,1-3.87,7.29,41.32,41.32,0,0,1-5.17,4.72q-1.21.12-2.43.3a2.87,2.87,0,0,0-2.25,3.45,1.39,1.39,0,0,0-.06.19c-.46,1.82.06,2.26-1.87,3.36a28,28,0,0,1-5.84,2.14c-3.93,1.19-2.25,7.36,1.7,6.16a55.85,55.85,0,0,0,5.46-1.87,3.07,3.07,0,0,0,2.77.61c4.92-1.21,10.12-3.39,13.51-7.27a2.43,2.43,0,0,0,.2-.28,3,3,0,0,0,1.95-2.12c.39-2.6.48-5.13,1.09-7.73a32.65,32.65,0,0,0,1.09-8.1C483.56,457,478.32,456.2,477.36,459.75Z"/><path class="cls-1" d="M505.71,476.76a2.21,2.21,0,0,0-1.77.8,2.86,2.86,0,0,0-2.24-.9l-16.47.17a3,3,0,0,0-3.05,2.8,2.47,2.47,0,0,0-1.68,2c-2.67,1.34-5.11,3.19-7.9,4.26a16.68,16.68,0,0,1-8.87.91,1.64,1.64,0,0,0-2,1.12,1.6,1.6,0,0,0,1.11,2,20.87,20.87,0,0,0,5.29.26,1.38,1.38,0,0,0,1.47,1.07,76.11,76.11,0,0,0,8.92-.89l.34-.06a1.45,1.45,0,0,0,1.2.54c3.07-.05,5.77-1.49,8.71-2.18,1.47-.35,3-.53,4.45-.83a37,37,0,0,0,4.74-1.31,1.54,1.54,0,0,0,1-1.14,1.52,1.52,0,0,0,1.87-1.53c1-.48,2-.92,2.76-1.26a2,2,0,0,0,1.14-1.16,2.29,2.29,0,0,0,.9.17C508.79,481.55,508.8,476.76,505.71,476.76Z"/><path class="cls-1" d="M482.17,401.26l-.12-.11,0-.14a92.11,92.11,0,0,0-.51-17.49,3.48,3.48,0,0,1-1.11-2.46,6.78,6.78,0,0,0-2.48-2.48c-.44-.29-.89-.55-1.33-.84a10.85,10.85,0,0,1-1.16-.95,11,11,0,0,0-7.19-2.94l-.21,0a33.43,33.43,0,0,0-13,.43,1.41,1.41,0,0,0-1,.67c-.71,0-1.41.08-2.12.14a1.53,1.53,0,0,0-1.52,1.31l-2.91.17c-2,.12-2.05,3.32,0,3.19l10.75-.64a38.32,38.32,0,0,1,4.91-.08,1.49,1.49,0,0,0,.33.72h0c0,.27.05.54.08.8,0,.46.07.92.1,1.37.07,1,.12,1.91.15,2.87q.09,2.87,0,5.73a1.62,1.62,0,0,0,1.6,1.59,1.35,1.35,0,0,0,.41-.06,8.76,8.76,0,0,0,2.76,1.63c1.35.66,2.07,2,3.07,3.06,1.17,1.23,2.76,2,4.08,3a53.77,53.77,0,0,1,4.1,3.74C481.38,405,483.64,402.7,482.17,401.26Z"/><path class="cls-3" d="M506.55,379.08c-.67-.2-1.34-.37-2-.53-.6-.54-1.14-1.35-1.5-1.7a8.88,8.88,0,0,0-3.42-2c-1.26-.43-2.57-.7-3.82-1.18a19,19,0,0,1-3.76-2,1.41,1.41,0,0,0-1.27-.2,22.92,22.92,0,0,0-5-1.51,52.53,52.53,0,0,0-12-1.33,18.27,18.27,0,0,1-2.1-.77,1.68,1.68,0,0,0-1.94.25,1.89,1.89,0,0,0-.38.63,28.65,28.65,0,0,0-6.21,0,1.64,1.64,0,0,0-1.59,1.6,1.6,1.6,0,0,0,1.59,1.59,26.11,26.11,0,0,1,9.16.61c.75.47,1.52.91,2.24,1.36l4.89,3.12c.14.11.27.22.42.32a1.45,1.45,0,0,0,.2.69,6.12,6.12,0,0,0,3.18,2.62,1.53,1.53,0,0,0,1.5,1.15,15.92,15.92,0,0,1,3,.06c.38.06.76.12,1.13.21a1.77,1.77,0,0,0,1.6-.47l1.06.2a49.61,49.61,0,0,0,11.23.23,1.59,1.59,0,0,0,.89-.32,4.76,4.76,0,0,0,2.85.44C508.21,381.92,507.91,379.51,506.55,379.08Z"/><path class="cls-3" d="M453.65,380.19a46.25,46.25,0,0,0-14.06,1.71,2.29,2.29,0,0,0-1.68-.78,34.34,34.34,0,0,0-9.21.71c-3.13.7-6.19,2.81-9.34,3.13a2.52,2.52,0,0,0-2.13,1.78c-2.33.23-4.66.53-7,.9-3,.47-1.75,5.09,1.27,4.61a101,101,0,0,1,13.23-1.2c3.57-.08,7.27.56,10.81.08,6.66-.89,12.48-4.14,18.72-6.24A2.4,2.4,0,0,0,453.65,380.19Z"/><path class="cls-4" d="M435.58,391.73l27.36-11.05v96.83l-26.87,13.95a.34.34,0,0,1-.49-.3Z"/><path class="cls-2" d="M450.4,484.35c11.59,4.56,25.08,2.89,32.54-7.94"/><path class="cls-2" d="M511,476.6c-14.28,16.94-41.43,19.8-60.95,8"/><path class="cls-2" d="M482.94,406.73a94.93,94.93,0,0,0-9.57-9.35c-2.13-1.78-7.5-6.7-10.61-4.48"/><path class="cls-2" d="M482.94,452.46a78.53,78.53,0,0,1-9,12.5c-2,2.24-7.58,9.12-11.13,6.58"/><rect class="cls-4" x="482.94" y="382.78" width="27.89" height="23.94"/><rect class="cls-4" x="482.94" y="452.46" width="27.89" height="23.94"/><path class="cls-2" d="M510.83,382.78a50.25,50.25,0,0,0-29.73-15.13c-21.12-2.62-36.05,9.7-38.51,11.8,10.76-7.37,23.26-9.18,32.45-4a23.23,23.23,0,0,1,7.9,7.36"/><polyline class="cls-4" points="435.12 491.72 389.78 491.72 354 437.25 354.26 491.72 319 491.72 319 391.73 351.89 391.73 400.57 461.49 400.57 391.73 434.78 391.73"/><polyline class="cls-2" points="401.23 391.71 428.83 380.42 463.25 380.42"/><polyline class="cls-2" points="381.76 380.42 347.13 380.42 319.52 391.71"/><line class="cls-5" x1="352.69" y1="391.73" x2="381.17" y2="380.42"/><line class="cls-5" x1="354.84" y1="491.87" x2="383.32" y2="480.56"/><path d="M381.89,379a.64.64,0,0,0-.4.13l-.08.06-.05,0a.78.78,0,0,0-.07.91.3.3,0,0,0,0,.13.34.34,0,0,0,.16.21.39.39,0,0,0,.28,0l.13-.07a.66.66,0,0,0,.51-.24A.72.72,0,0,0,381.89,379Z"/><path d="M359.58,489.81a1.09,1.09,0,0,0-1.52,0l-.16.14-.36.2a3,3,0,0,0-.41.29l-.38.24-.38.32h0c-.29,0-.59,0-.89,0a1.16,1.16,0,0,0-.76.32,1.11,1.11,0,0,0-.31.76,1.08,1.08,0,0,0,1.07,1.07c.45,0,.9,0,1.35-.08a1.71,1.71,0,0,0,.65-.24,3.54,3.54,0,0,0,.47-.38l.26-.16c.16-.11.31-.24.47-.37l-.22.17a5.14,5.14,0,0,1,.51-.29,2.91,2.91,0,0,0,.65-.52A1.08,1.08,0,0,0,359.58,489.81Z"/><path d="M443.71,378.94a1.06,1.06,0,0,0-1.07-1.07,1.13,1.13,0,0,0-.76.31l-.15.15a.05.05,0,0,0,0,0l-.49.25a5.39,5.39,0,0,0-.75.31,6.52,6.52,0,0,0-.8.58,1.08,1.08,0,0,0-.31.76,1.13,1.13,0,0,0,.31.76l.18.13a1,1,0,0,0,.54.36,1.11,1.11,0,0,0,.82-.1,2.17,2.17,0,0,0,.52-.43l.13-.14.12-.07h0a2.19,2.19,0,0,0,.49-.23,3,3,0,0,0,.39-.31,2.11,2.11,0,0,0,.23-.19.64.64,0,0,0,.13-.15l.19-.18A1.13,1.13,0,0,0,443.71,378.94Z"/><image width="366" height="366" transform="translate(614 361) scale(0.49)" xlink:href="../../../../../../../Downloads/image.png"/></svg>